<mxfile host="Electron" agent="Mozilla/5.0 (Windows NT 10.0; Win64; x64) AppleWebKit/537.36 (KHTML, like Gecko) draw.io/26.1.1 Chrome/132.0.6834.210 Electron/34.3.3 Safari/537.36" version="26.1.1">
  <diagram name="Page-1" id="IOf1I_8Z2w5J75PIsMit">
    <mxGraphModel dx="463" dy="1876" grid="1" gridSize="10" guides="1" tooltips="1" connect="1" arrows="1" fold="1" page="1" pageScale="1" pageWidth="850" pageHeight="1100" math="0" shadow="0">
      <root>
        <mxCell id="0" />
        <mxCell id="1" parent="0" />
        <mxCell id="-Kn7uwRvl20SE1jmXLUy-69" value="&lt;span style=&quot;font-size: 14px;&quot;&gt;&lt;b&gt;Token&amp;nbsp;&lt;/b&gt;&lt;/span&gt;&lt;div&gt;&lt;span style=&quot;font-size: 14px;&quot;&gt;&lt;b&gt;Sequence + [CLS]&lt;/b&gt;&lt;/span&gt;&lt;/div&gt;" style="rounded=1;whiteSpace=wrap;html=1;fillColor=light-dark(#f29c9c, #9d4545);strokeColor=#b85450;" vertex="1" parent="1">
          <mxGeometry x="970" y="-490" width="150" height="60" as="geometry" />
        </mxCell>
        <mxCell id="-Kn7uwRvl20SE1jmXLUy-112" value="" style="group" vertex="1" connectable="0" parent="1">
          <mxGeometry x="1150" y="-560" width="160" height="200" as="geometry" />
        </mxCell>
        <mxCell id="-Kn7uwRvl20SE1jmXLUy-70" value="" style="rounded=1;whiteSpace=wrap;html=1;fontStyle=1;fillColor=#FFD19A;strokeColor=#9673a6;arcSize=6;" vertex="1" parent="-Kn7uwRvl20SE1jmXLUy-112">
          <mxGeometry x="5.0003125195324705" width="150.0093755859741" height="200" as="geometry" />
        </mxCell>
        <mxCell id="-Kn7uwRvl20SE1jmXLUy-71" value="&lt;span style=&quot;font-size: 13px;&quot;&gt;&lt;i&gt;Transformer Encoder Layer 1&lt;/i&gt;&lt;/span&gt;" style="text;html=1;align=center;verticalAlign=middle;whiteSpace=wrap;rounded=0;fontStyle=1" vertex="1" parent="-Kn7uwRvl20SE1jmXLUy-112">
          <mxGeometry y="13.016528925619834" width="160" height="17.355371900826448" as="geometry" />
        </mxCell>
        <mxCell id="-Kn7uwRvl20SE1jmXLUy-72" value="&lt;font style=&quot;font-size: 11px;&quot;&gt;Multi-head self-attention&lt;/font&gt;" style="rounded=1;whiteSpace=wrap;html=1;fontStyle=1;" vertex="1" parent="-Kn7uwRvl20SE1jmXLUy-112">
          <mxGeometry x="18.561160072504475" y="47.72727272727273" width="121.43758984936558" height="30.371900826446282" as="geometry" />
        </mxCell>
        <mxCell id="-Kn7uwRvl20SE1jmXLUy-73" value="&lt;font style=&quot;font-size: 11px;&quot;&gt;Feed-forward&amp;nbsp;&lt;/font&gt;&lt;div&gt;&lt;font style=&quot;font-size: 11px;&quot;&gt;network&lt;/font&gt;&lt;/div&gt;" style="rounded=1;whiteSpace=wrap;html=1;fontStyle=1;" vertex="1" parent="-Kn7uwRvl20SE1jmXLUy-112">
          <mxGeometry x="19.29120570035627" y="100" width="121.43758984936558" height="30.58181818181818" as="geometry" />
        </mxCell>
        <mxCell id="-Kn7uwRvl20SE1jmXLUy-74" value="" style="endArrow=classic;html=1;rounded=0;exitX=0.5;exitY=1;exitDx=0;exitDy=0;entryX=0.5;entryY=0;entryDx=0;entryDy=0;" edge="1" parent="-Kn7uwRvl20SE1jmXLUy-112" source="-Kn7uwRvl20SE1jmXLUy-72" target="-Kn7uwRvl20SE1jmXLUy-73">
          <mxGeometry width="50" height="50" relative="1" as="geometry">
            <mxPoint x="9.990624414025886" y="169.21487603305786" as="sourcePoint" />
            <mxPoint x="59.99374960935059" y="125.82644628099173" as="targetPoint" />
          </mxGeometry>
        </mxCell>
        <mxCell id="-Kn7uwRvl20SE1jmXLUy-75" value="&lt;font style=&quot;font-size: 11px;&quot;&gt;Dropout &amp;amp;&amp;nbsp;&lt;/font&gt;&lt;div&gt;&lt;font style=&quot;font-size: 11px;&quot;&gt;LayerNorm&lt;/font&gt;&lt;/div&gt;" style="rounded=1;whiteSpace=wrap;html=1;fontStyle=1;" vertex="1" parent="-Kn7uwRvl20SE1jmXLUy-112">
          <mxGeometry x="20.001250078129882" y="151.44545454545454" width="120.00750046877928" height="30.37272727272727" as="geometry" />
        </mxCell>
        <mxCell id="-Kn7uwRvl20SE1jmXLUy-76" value="" style="endArrow=classic;html=1;rounded=0;exitX=0.5;exitY=1;exitDx=0;exitDy=0;entryX=0.5;entryY=0;entryDx=0;entryDy=0;" edge="1" parent="-Kn7uwRvl20SE1jmXLUy-112" source="-Kn7uwRvl20SE1jmXLUy-73" target="-Kn7uwRvl20SE1jmXLUy-75">
          <mxGeometry width="50" height="50" relative="1" as="geometry">
            <mxPoint x="89.00556284767798" y="86.77685950413223" as="sourcePoint" />
            <mxPoint x="89.00556284767798" y="104.13223140495867" as="targetPoint" />
          </mxGeometry>
        </mxCell>
        <mxCell id="-Kn7uwRvl20SE1jmXLUy-126" value="" style="group" vertex="1" connectable="0" parent="1">
          <mxGeometry x="1330" y="-560" width="160" height="200" as="geometry" />
        </mxCell>
        <mxCell id="-Kn7uwRvl20SE1jmXLUy-127" value="" style="rounded=1;whiteSpace=wrap;html=1;fontStyle=1;fillColor=#fff2cc;strokeColor=#d6b656;arcSize=6;" vertex="1" parent="-Kn7uwRvl20SE1jmXLUy-126">
          <mxGeometry x="5.0003125195324705" width="150.0093755859741" height="200" as="geometry" />
        </mxCell>
        <mxCell id="-Kn7uwRvl20SE1jmXLUy-128" value="&lt;span style=&quot;font-size: 13px;&quot;&gt;&lt;i&gt;Transformer Encoder Layer 2&lt;/i&gt;&lt;/span&gt;" style="text;html=1;align=center;verticalAlign=middle;whiteSpace=wrap;rounded=0;fontStyle=1" vertex="1" parent="-Kn7uwRvl20SE1jmXLUy-126">
          <mxGeometry y="13.016528925619834" width="160" height="17.355371900826448" as="geometry" />
        </mxCell>
        <mxCell id="-Kn7uwRvl20SE1jmXLUy-129" value="&lt;font style=&quot;font-size: 11px;&quot;&gt;Multi-head self-attention&lt;/font&gt;" style="rounded=1;whiteSpace=wrap;html=1;fontStyle=1;" vertex="1" parent="-Kn7uwRvl20SE1jmXLUy-126">
          <mxGeometry x="18.561160072504475" y="47.72727272727273" width="121.43758984936558" height="30.371900826446282" as="geometry" />
        </mxCell>
        <mxCell id="-Kn7uwRvl20SE1jmXLUy-130" value="&lt;font style=&quot;font-size: 11px;&quot;&gt;Feed-forward&amp;nbsp;&lt;/font&gt;&lt;div&gt;&lt;font style=&quot;font-size: 11px;&quot;&gt;network&lt;/font&gt;&lt;/div&gt;" style="rounded=1;whiteSpace=wrap;html=1;fontStyle=1;" vertex="1" parent="-Kn7uwRvl20SE1jmXLUy-126">
          <mxGeometry x="19.29120570035627" y="100" width="121.43758984936558" height="30.58181818181818" as="geometry" />
        </mxCell>
        <mxCell id="-Kn7uwRvl20SE1jmXLUy-131" value="" style="endArrow=classic;html=1;rounded=0;exitX=0.5;exitY=1;exitDx=0;exitDy=0;entryX=0.5;entryY=0;entryDx=0;entryDy=0;" edge="1" parent="-Kn7uwRvl20SE1jmXLUy-126" source="-Kn7uwRvl20SE1jmXLUy-129" target="-Kn7uwRvl20SE1jmXLUy-130">
          <mxGeometry width="50" height="50" relative="1" as="geometry">
            <mxPoint x="9.990624414025886" y="169.21487603305786" as="sourcePoint" />
            <mxPoint x="59.99374960935059" y="125.82644628099173" as="targetPoint" />
          </mxGeometry>
        </mxCell>
        <mxCell id="-Kn7uwRvl20SE1jmXLUy-132" value="&lt;font style=&quot;font-size: 11px;&quot;&gt;Dropout &amp;amp;&amp;nbsp;&lt;/font&gt;&lt;div&gt;&lt;font style=&quot;font-size: 11px;&quot;&gt;LayerNorm&lt;/font&gt;&lt;/div&gt;" style="rounded=1;whiteSpace=wrap;html=1;fontStyle=1;" vertex="1" parent="-Kn7uwRvl20SE1jmXLUy-126">
          <mxGeometry x="20.001250078129882" y="151.44545454545454" width="120.00750046877928" height="30.37272727272727" as="geometry" />
        </mxCell>
        <mxCell id="-Kn7uwRvl20SE1jmXLUy-133" value="" style="endArrow=classic;html=1;rounded=0;exitX=0.5;exitY=1;exitDx=0;exitDy=0;entryX=0.5;entryY=0;entryDx=0;entryDy=0;" edge="1" parent="-Kn7uwRvl20SE1jmXLUy-126" source="-Kn7uwRvl20SE1jmXLUy-130" target="-Kn7uwRvl20SE1jmXLUy-132">
          <mxGeometry width="50" height="50" relative="1" as="geometry">
            <mxPoint x="89.00556284767798" y="86.77685950413223" as="sourcePoint" />
            <mxPoint x="89.00556284767798" y="104.13223140495867" as="targetPoint" />
          </mxGeometry>
        </mxCell>
        <mxCell id="-Kn7uwRvl20SE1jmXLUy-166" value="" style="endArrow=classic;html=1;rounded=0;exitX=1;exitY=0.5;exitDx=0;exitDy=0;entryX=0;entryY=0.5;entryDx=0;entryDy=0;" edge="1" parent="1" source="-Kn7uwRvl20SE1jmXLUy-69" target="-Kn7uwRvl20SE1jmXLUy-70">
          <mxGeometry width="50" height="50" relative="1" as="geometry">
            <mxPoint x="1400" y="-420" as="sourcePoint" />
            <mxPoint x="1450" y="-470" as="targetPoint" />
          </mxGeometry>
        </mxCell>
        <mxCell id="-Kn7uwRvl20SE1jmXLUy-167" value="" style="endArrow=classic;html=1;rounded=0;exitX=1;exitY=0.5;exitDx=0;exitDy=0;entryX=0;entryY=0.5;entryDx=0;entryDy=0;" edge="1" parent="1" source="-Kn7uwRvl20SE1jmXLUy-75" target="-Kn7uwRvl20SE1jmXLUy-129">
          <mxGeometry width="50" height="50" relative="1" as="geometry">
            <mxPoint x="1400" y="-420" as="sourcePoint" />
            <mxPoint x="1450" y="-470" as="targetPoint" />
            <Array as="points">
              <mxPoint x="1320" y="-393" />
              <mxPoint x="1320" y="-497" />
            </Array>
          </mxGeometry>
        </mxCell>
        <mxCell id="-Kn7uwRvl20SE1jmXLUy-168" value="" style="endArrow=classic;html=1;rounded=0;exitX=1;exitY=0.5;exitDx=0;exitDy=0;" edge="1" parent="1" source="-Kn7uwRvl20SE1jmXLUy-132">
          <mxGeometry width="50" height="50" relative="1" as="geometry">
            <mxPoint x="1400" y="-420" as="sourcePoint" />
            <mxPoint x="1520" y="-497" as="targetPoint" />
            <Array as="points">
              <mxPoint x="1500" y="-393" />
              <mxPoint x="1500" y="-497" />
            </Array>
          </mxGeometry>
        </mxCell>
        <mxCell id="-Kn7uwRvl20SE1jmXLUy-171" value="" style="endArrow=none;dashed=1;html=1;dashPattern=1 3;strokeWidth=4;rounded=0;" edge="1" parent="1">
          <mxGeometry width="50" height="50" relative="1" as="geometry">
            <mxPoint x="1510" y="-460.34" as="sourcePoint" />
            <mxPoint x="1550" y="-460.34" as="targetPoint" />
          </mxGeometry>
        </mxCell>
        <mxCell id="-Kn7uwRvl20SE1jmXLUy-172" value="" style="group" vertex="1" connectable="0" parent="1">
          <mxGeometry x="1540" y="-560" width="190" height="200" as="geometry" />
        </mxCell>
        <mxCell id="-Kn7uwRvl20SE1jmXLUy-158" value="" style="group" vertex="1" connectable="0" parent="-Kn7uwRvl20SE1jmXLUy-172">
          <mxGeometry x="30" width="160" height="200" as="geometry" />
        </mxCell>
        <mxCell id="-Kn7uwRvl20SE1jmXLUy-159" value="" style="rounded=1;whiteSpace=wrap;html=1;fontStyle=1;fillColor=#d5e8d4;strokeColor=#82b366;arcSize=6;" vertex="1" parent="-Kn7uwRvl20SE1jmXLUy-158">
          <mxGeometry x="5.0003125195324705" width="150.0093755859741" height="200" as="geometry" />
        </mxCell>
        <mxCell id="-Kn7uwRvl20SE1jmXLUy-160" value="&lt;span style=&quot;font-size: 13px;&quot;&gt;&lt;i&gt;Transformer Encoder Layer 6&lt;/i&gt;&lt;/span&gt;" style="text;html=1;align=center;verticalAlign=middle;whiteSpace=wrap;rounded=0;fontStyle=1" vertex="1" parent="-Kn7uwRvl20SE1jmXLUy-158">
          <mxGeometry y="13.016528925619834" width="160" height="17.355371900826448" as="geometry" />
        </mxCell>
        <mxCell id="-Kn7uwRvl20SE1jmXLUy-161" value="&lt;font style=&quot;font-size: 11px;&quot;&gt;Multi-head self-attention&lt;/font&gt;" style="rounded=1;whiteSpace=wrap;html=1;fontStyle=1;" vertex="1" parent="-Kn7uwRvl20SE1jmXLUy-158">
          <mxGeometry x="18.561160072504475" y="47.72727272727273" width="121.43758984936558" height="30.371900826446282" as="geometry" />
        </mxCell>
        <mxCell id="-Kn7uwRvl20SE1jmXLUy-162" value="&lt;font style=&quot;font-size: 11px;&quot;&gt;Feed-forward&amp;nbsp;&lt;/font&gt;&lt;div&gt;&lt;font style=&quot;font-size: 11px;&quot;&gt;network&lt;/font&gt;&lt;/div&gt;" style="rounded=1;whiteSpace=wrap;html=1;fontStyle=1;" vertex="1" parent="-Kn7uwRvl20SE1jmXLUy-158">
          <mxGeometry x="19.29120570035627" y="100" width="121.43758984936558" height="30.58181818181818" as="geometry" />
        </mxCell>
        <mxCell id="-Kn7uwRvl20SE1jmXLUy-163" value="" style="endArrow=classic;html=1;rounded=0;exitX=0.5;exitY=1;exitDx=0;exitDy=0;entryX=0.5;entryY=0;entryDx=0;entryDy=0;" edge="1" parent="-Kn7uwRvl20SE1jmXLUy-158" source="-Kn7uwRvl20SE1jmXLUy-161" target="-Kn7uwRvl20SE1jmXLUy-162">
          <mxGeometry width="50" height="50" relative="1" as="geometry">
            <mxPoint x="9.990624414025886" y="169.21487603305786" as="sourcePoint" />
            <mxPoint x="59.99374960935059" y="125.82644628099173" as="targetPoint" />
          </mxGeometry>
        </mxCell>
        <mxCell id="-Kn7uwRvl20SE1jmXLUy-164" value="&lt;font style=&quot;font-size: 11px;&quot;&gt;Dropout &amp;amp;&amp;nbsp;&lt;/font&gt;&lt;div&gt;&lt;font style=&quot;font-size: 11px;&quot;&gt;LayerNorm&lt;/font&gt;&lt;/div&gt;" style="rounded=1;whiteSpace=wrap;html=1;fontStyle=1;" vertex="1" parent="-Kn7uwRvl20SE1jmXLUy-158">
          <mxGeometry x="20.001250078129882" y="151.44545454545454" width="120.00750046877928" height="30.37272727272727" as="geometry" />
        </mxCell>
        <mxCell id="-Kn7uwRvl20SE1jmXLUy-165" value="" style="endArrow=classic;html=1;rounded=0;exitX=0.5;exitY=1;exitDx=0;exitDy=0;entryX=0.5;entryY=0;entryDx=0;entryDy=0;" edge="1" parent="-Kn7uwRvl20SE1jmXLUy-158" source="-Kn7uwRvl20SE1jmXLUy-162" target="-Kn7uwRvl20SE1jmXLUy-164">
          <mxGeometry width="50" height="50" relative="1" as="geometry">
            <mxPoint x="89.00556284767798" y="86.77685950413223" as="sourcePoint" />
            <mxPoint x="89.00556284767798" y="104.13223140495867" as="targetPoint" />
          </mxGeometry>
        </mxCell>
        <mxCell id="-Kn7uwRvl20SE1jmXLUy-169" value="" style="endArrow=classic;html=1;rounded=0;entryX=0;entryY=0.5;entryDx=0;entryDy=0;" edge="1" parent="-Kn7uwRvl20SE1jmXLUy-172" target="-Kn7uwRvl20SE1jmXLUy-161">
          <mxGeometry width="50" height="50" relative="1" as="geometry">
            <mxPoint y="167" as="sourcePoint" />
            <mxPoint x="-90" y="90" as="targetPoint" />
            <Array as="points">
              <mxPoint x="20" y="167" />
              <mxPoint x="20" y="63" />
            </Array>
          </mxGeometry>
        </mxCell>
        <mxCell id="-Kn7uwRvl20SE1jmXLUy-173" value="&lt;span style=&quot;font-size: 14px;&quot;&gt;&lt;b&gt;[CLS] Output&lt;/b&gt;&lt;/span&gt;" style="rounded=1;whiteSpace=wrap;html=1;fillColor=#b0e3e6;strokeColor=#0e8088;" vertex="1" parent="1">
          <mxGeometry x="1760" y="-490" width="110" height="60" as="geometry" />
        </mxCell>
        <mxCell id="-Kn7uwRvl20SE1jmXLUy-174" value="&lt;span style=&quot;font-size: 14px;&quot;&gt;&lt;b&gt;Fully Connected&amp;nbsp;&lt;/b&gt;&lt;/span&gt;&lt;div&gt;&lt;span style=&quot;font-size: 14px;&quot;&gt;&lt;b&gt;(9 neurons)&lt;/b&gt;&lt;/span&gt;&lt;/div&gt;" style="rounded=1;whiteSpace=wrap;html=1;fillColor=#b1ddf0;strokeColor=#10739e;" vertex="1" parent="1">
          <mxGeometry x="1900" y="-490" width="110" height="60" as="geometry" />
        </mxCell>
        <mxCell id="-Kn7uwRvl20SE1jmXLUy-175" value="&lt;span style=&quot;font-size: 14px;&quot;&gt;&lt;b&gt;Softmax&lt;/b&gt;&lt;/span&gt;" style="rounded=1;whiteSpace=wrap;html=1;fillColor=#d0cee2;strokeColor=#56517e;" vertex="1" parent="1">
          <mxGeometry x="2040" y="-490" width="110" height="60" as="geometry" />
        </mxCell>
        <mxCell id="-Kn7uwRvl20SE1jmXLUy-176" value="&lt;span style=&quot;font-size: 14px;&quot;&gt;&lt;b&gt;Predicted Output Class&lt;/b&gt;&lt;/span&gt;" style="rounded=1;whiteSpace=wrap;html=1;fillColor=#fad9d5;strokeColor=#ae4132;" vertex="1" parent="1">
          <mxGeometry x="2180" y="-490" width="110" height="60" as="geometry" />
        </mxCell>
        <mxCell id="-Kn7uwRvl20SE1jmXLUy-179" value="" style="endArrow=classic;html=1;rounded=0;exitX=1;exitY=0.5;exitDx=0;exitDy=0;entryX=0;entryY=0.5;entryDx=0;entryDy=0;" edge="1" parent="1" source="-Kn7uwRvl20SE1jmXLUy-159" target="-Kn7uwRvl20SE1jmXLUy-173">
          <mxGeometry width="50" height="50" relative="1" as="geometry">
            <mxPoint x="1620" y="-360" as="sourcePoint" />
            <mxPoint x="1670" y="-410" as="targetPoint" />
          </mxGeometry>
        </mxCell>
        <mxCell id="-Kn7uwRvl20SE1jmXLUy-180" value="" style="endArrow=classic;html=1;rounded=0;exitX=1;exitY=0.5;exitDx=0;exitDy=0;entryX=0;entryY=0.5;entryDx=0;entryDy=0;" edge="1" parent="1" source="-Kn7uwRvl20SE1jmXLUy-173" target="-Kn7uwRvl20SE1jmXLUy-174">
          <mxGeometry width="50" height="50" relative="1" as="geometry">
            <mxPoint x="1720" y="-370" as="sourcePoint" />
            <mxPoint x="1770" y="-420" as="targetPoint" />
          </mxGeometry>
        </mxCell>
        <mxCell id="-Kn7uwRvl20SE1jmXLUy-181" value="" style="endArrow=classic;html=1;rounded=0;exitX=1;exitY=0.5;exitDx=0;exitDy=0;entryX=0;entryY=0.5;entryDx=0;entryDy=0;" edge="1" parent="1" source="-Kn7uwRvl20SE1jmXLUy-174" target="-Kn7uwRvl20SE1jmXLUy-175">
          <mxGeometry width="50" height="50" relative="1" as="geometry">
            <mxPoint x="1720" y="-370" as="sourcePoint" />
            <mxPoint x="1770" y="-420" as="targetPoint" />
          </mxGeometry>
        </mxCell>
        <mxCell id="-Kn7uwRvl20SE1jmXLUy-182" value="" style="endArrow=classic;html=1;rounded=0;exitX=1;exitY=0.5;exitDx=0;exitDy=0;entryX=0;entryY=0.5;entryDx=0;entryDy=0;" edge="1" parent="1" source="-Kn7uwRvl20SE1jmXLUy-175" target="-Kn7uwRvl20SE1jmXLUy-176">
          <mxGeometry width="50" height="50" relative="1" as="geometry">
            <mxPoint x="2020" y="-450" as="sourcePoint" />
            <mxPoint x="2050" y="-450" as="targetPoint" />
          </mxGeometry>
        </mxCell>
      </root>
    </mxGraphModel>
  </diagram>
</mxfile>
